#N canvas 1169 157 589 690 10;
#N canvas 2531 183 1864 905 graindelay 0;
#X obj 92 686 outlet~;
#X obj 285 692 outlet~;
#X obj -189 370 t f f;
#X obj -211 411 *;
#X obj -225 442 t b f;
#X obj -292 630 metro 30;
#X obj -202 560 * 1000;
#X obj -221 597 clip 1 1000;
#X obj 226 224 nbx 2 14 0 48 0 1 empty empty tr -12 7 0 10 -262144
-1 -1 0 256;
#X obj -303 595 delay 10;
#X obj -222 532 +;
#X obj -331 476 random;
#X obj -255 379 *;
#X obj -253 355 t f f;
#X obj -320 322 delay 0;
#X obj -255 400 *;
#X obj -300 425 * 1000;
#X obj -327 497 / 1000;
#X obj -313 524 clip 10 1000;
#X obj 184 224 nbx 2 14 -36 36 0 1 empty empty tp -13 7 0 10 -262144
-1 -1 -1 256;
#X obj 272 582 inlet~;
#X obj 407 192 / 1000;
#X obj 406 257 *;
#X obj 426 225 samplerate~;
#X obj 441 254 / 1000;
#X obj 414 291 /;
#X obj -124 392 *;
#X obj 414 320 delay 1;
#X obj 77 473 change;
#X obj 198 318 +;
#X obj 215 279 t b f;
#X obj 113 224 nbx 5 14 500 20000 0 1 empty empty ln -12 7 0 10 -262144
-1 -1 2001 256;
#X obj 257 224 tgl 15 0 empty congelar fr 2 7 0 10 -262144 -1 -128992
0 20;
#X obj 456 -17 loadbang;
#X msg 328 49 0;
#X obj 99 546 +;
#X obj 78 496 t b f;
#X obj -127 440 phasor~;
#X obj 399 50 / 1000;
#X obj 357 75 t b f;
#X msg 359 97 1;
#X obj 370 119 /;
#X obj -128 467 snapshot~;
#X obj -124 508 *;
#X obj 120 623 abs_graindelay_particles20;
#X obj -123 543 *;
#X obj -138 353 +;
#X obj -140 298 t b f;
#X obj -149 224 snapshot~;
#X obj -117 255 * 0.5;
#X obj -139 276 *;
#X obj 450 114 delay 1;
#X obj 258 509 *;
#X obj 260 535 * 500;
#X obj 253 480 t f f;
#X obj 143 27 bang~;
#X obj 240 118 vsl 12 100 0 1 0 1 empty fx fb 0 7 0 10 -262144 -1 -1
0 1;
#X obj 167 417 snapshot~;
#X obj 133 506 *;
#X obj 128 477 t f f;
#X obj 135 572 * 1000;
#X obj -124 612 *;
#X obj -122 638 * 500;
#X obj -129 583 t f f;
#X obj 302 532 *;
#X obj 297 503 t f f;
#X obj 147 57 snapshot~;
#X obj -302 451 clip 1 1000;
#X obj -223 485 +;
#X obj -181 440 *;
#X obj -176 414 t f f;
#X obj -175 466 * 0.5;
#X obj -213 510 t b f;
#X obj 265 114 vsl 12 48 0 1 0 1 empty empty rp 0 7 0 10 -262144 -1
-1 0 1;
#X obj 265 170 vsl 12 48 0 1 0 1 empty empty ev 0 7 0 10 -262144 -1
-1 0 1;
#X obj 330 418 * 0.49;
#X obj 254 118 vsl 8 100 0 1 0 1 empty empty m 2 7 0 10 -262144 -1
-1 4500 1;
#X obj 148 79 *;
#X obj 265 22 t f f;
#X obj 277 43 *;
#X obj 225 20 t f f;
#X obj 237 41 *;
#X text 177 706 stereo out;
#X obj 207 71 * 128;
#X obj 102 102 cnv 8 8 8 empty empty in 0 5 0 8 -262144 -4160 0;
#X obj 102 240 cnv 8 8 8 empty empty l 0 5 0 8 -262144 -4160 0;
#X obj 269 240 cnv 8 8 8 empty empty r 0 5 0 8 -262144 -4160 0;
#X obj 265 102 cnv 8 8 8 empty empty frz 0 5 0 8 -262144 -4160 0;
#X obj 136 548 +;
#X obj 160 514 t b f;
#X obj 166 451 * 0.5;
#X obj 134 102 cnv 8 8 8 empty empty rt 0 5 0 8 -262144 -4160 0;
#X obj 172 102 cnv 8 8 8 empty empty ps 0 5 0 8 -262144 -4160 0;
#X obj 201 102 cnv 8 8 8 empty empty ln 0 5 0 8 -262144 -4160 0;
#X obj 237 102 cnv 8 8 8 empty empty tp 0 5 0 8 -262144 -4160 0;
#X obj 107 116 hsl 128 12 0 1 0 1 empty position position 2 6 0 10
-262144 -1 -99865 0 1;
#X obj 107 129 hsl 128 10 0 1 0 1 empty empty random 2 5 0 10 -262144
-1 -99865 0 1;
#X obj 107 139 hsl 128 10 0 1 0 1 empty empty mod 2 5 0 10 -262144
-1 -99865 0 1;
#X obj 107 152 hsl 128 12 0 1 0 1 empty empty grainlength 2 6 0 10
-262144 -1 -99865 12700 1;
#X obj 107 165 hsl 128 10 0 1 0 1 empty empty random 2 5 0 10 -262144
-1 -99865 0 1;
#X obj 107 175 hsl 128 10 0 1 0 1 empty empty mod 2 5 0 10 -262144
-1 -99865 0 1;
#X obj 107 188 hsl 128 12 0 1 0 1 empty empty rate 2 6 0 10 -262144
-1 -99865 6350 1;
#X obj 107 201 hsl 128 10 0 1 0 1 empty empty random 2 5 0 10 -262144
-1 -99865 0 1;
#X obj 107 211 hsl 128 10 0 1 0 1 empty empty mod 2 5 0 10 -262144
-1 -99865 0 1;
#X obj 155 240 cnv 9 60 9 empty empty granular-delay 0 5 0 9 -262144
-16662 0;
#X obj 169 481 *;
#X floatatom -155 -74 3 0 0 0 - - -;
#X floatatom -199 -75 3 0 0 0 - - -;
#X obj -199 -53 bng 20 250 50 0 empty empty empty 17 7 0 10 -262144
-1 -1;
#X obj -202 -24 / 100;
#X obj -199 -100 ctlin 61;
#X floatatom 681 64 3 0 0 0 - - -;
#X floatatom 637 63 3 0 0 0 - - -;
#X obj 646 149 bng 20 250 50 0 empty empty empty 17 7 0 10 -262144
-1 -1;
#X obj 643 178 / 100;
#X obj 637 38 ctlin 50;
#X obj 87 -92 loadbang;
#X msg 99 -48 0;
#X msg 91 -68 1;
#X msg 102 -26 0.5;
#X floatatom -238 -75 3 0 0 0 - - -;
#X floatatom -282 -76 3 0 0 0 - - -;
#X obj -282 -54 bng 20 250 50 0 empty empty empty 17 7 0 10 -262144
-1 -1;
#X obj -285 -25 / 100;
#X obj -282 -101 ctlin 62;
#X floatatom -330 -72 3 0 0 0 - - -;
#X floatatom -374 -73 3 0 0 0 - - -;
#X obj -374 -51 bng 20 250 50 0 empty empty empty 17 7 0 10 -262144
-1 -1;
#X obj -377 -22 / 100;
#X obj -374 -98 ctlin 63;
#X floatatom -428 -71 3 0 0 0 - - -;
#X floatatom -472 -72 3 0 0 0 - - -;
#X obj -472 -50 bng 20 250 50 0 empty empty empty 17 7 0 10 -262144
-1 -1;
#X obj -475 -21 / 100;
#X floatatom -520 -68 3 0 0 0 - - -;
#X floatatom -564 -69 3 0 0 0 - - -;
#X obj -564 -47 bng 20 250 50 0 empty empty empty 17 7 0 10 -262144
-1 -1;
#X obj -567 -18 / 100;
#X obj -472 -97 ctlin 64;
#X obj -564 -94 ctlin 65;
#X floatatom -441 69 3 0 0 0 - - -;
#X floatatom -485 68 3 0 0 0 - - -;
#X obj -485 90 bng 20 250 50 0 empty empty empty 17 7 0 10 -262144
-1 -1;
#X obj -488 119 / 100;
#X floatatom -524 68 3 0 0 0 - - -;
#X floatatom -568 67 3 0 0 0 - - -;
#X obj -568 89 bng 20 250 50 0 empty empty empty 17 7 0 10 -262144
-1 -1;
#X obj -571 118 / 100;
#X floatatom -616 71 3 0 0 0 - - -;
#X floatatom -660 70 3 0 0 0 - - -;
#X obj -660 92 bng 20 250 50 0 empty empty empty 17 7 0 10 -262144
-1 -1;
#X obj -663 121 / 100;
#X floatatom -714 72 3 0 0 0 - - -;
#X floatatom -758 71 3 0 0 0 - - -;
#X obj -758 93 bng 20 250 50 0 empty empty empty 17 7 0 10 -262144
-1 -1;
#X obj -761 122 / 100;
#X floatatom -806 75 3 0 0 0 - - -;
#X floatatom -850 74 3 0 0 0 - - -;
#X obj -850 96 bng 20 250 50 0 empty empty empty 17 7 0 10 -262144
-1 -1;
#X obj -853 125 / 100;
#X obj -485 43 ctlin 66;
#X obj -568 42 ctlin 67;
#X obj -660 45 ctlin 68;
#X obj -758 46 ctlin 69;
#X obj -850 49 ctlin 70;
#X connect 2 0 3 0;
#X connect 2 1 3 1;
#X connect 3 0 4 0;
#X connect 3 0 15 1;
#X connect 4 0 9 0;
#X connect 4 1 68 1;
#X connect 5 0 14 0;
#X connect 5 0 42 0;
#X connect 5 0 44 0;
#X connect 6 0 7 0;
#X connect 6 0 18 0;
#X connect 7 0 5 1;
#X connect 8 0 44 7;
#X connect 9 0 5 0;
#X connect 10 0 6 0;
#X connect 11 0 17 0;
#X connect 12 0 15 0;
#X connect 13 0 12 0;
#X connect 13 1 12 1;
#X connect 14 0 11 0;
#X connect 14 0 57 0;
#X connect 14 0 48 0;
#X connect 15 0 16 0;
#X connect 16 0 67 0;
#X connect 17 0 68 0;
#X connect 18 0 9 1;
#X connect 19 0 29 0;
#X connect 20 0 44 12;
#X connect 21 0 22 0;
#X connect 22 0 25 0;
#X connect 23 0 22 1;
#X connect 23 0 24 0;
#X connect 24 0 25 1;
#X connect 25 0 27 0;
#X connect 25 0 26 1;
#X connect 26 0 28 0;
#X connect 27 0 101 0;
#X connect 28 0 36 0;
#X connect 29 0 44 6;
#X connect 30 0 29 0;
#X connect 30 1 29 1;
#X connect 31 0 21 0;
#X connect 31 0 38 0;
#X connect 31 0 43 1;
#X connect 31 0 44 10;
#X connect 32 0 37 1;
#X connect 32 0 45 1;
#X connect 32 0 44 9;
#X connect 33 0 34 0;
#X connect 33 0 5 0;
#X connect 33 0 23 0;
#X connect 33 0 51 0;
#X connect 34 0 32 0;
#X connect 35 0 44 4;
#X connect 36 0 35 0;
#X connect 36 1 35 1;
#X connect 37 0 42 0;
#X connect 38 0 39 0;
#X connect 39 0 40 0;
#X connect 39 1 41 1;
#X connect 40 0 41 0;
#X connect 41 0 37 0;
#X connect 42 0 43 0;
#X connect 43 0 45 0;
#X connect 44 0 0 0;
#X connect 44 1 1 0;
#X connect 45 0 35 0;
#X connect 46 0 26 0;
#X connect 47 0 46 0;
#X connect 47 1 46 1;
#X connect 48 0 50 0;
#X connect 49 0 50 1;
#X connect 50 0 47 0;
#X connect 51 0 31 0;
#X connect 52 0 53 0;
#X connect 53 0 44 5;
#X connect 54 0 52 0;
#X connect 54 1 52 1;
#X connect 55 0 66 0;
#X connect 56 0 65 0;
#X connect 57 0 90 0;
#X connect 58 0 88 0;
#X connect 59 0 58 0;
#X connect 59 1 58 1;
#X connect 60 0 44 1;
#X connect 61 0 62 0;
#X connect 62 0 44 2;
#X connect 63 0 61 0;
#X connect 63 1 61 1;
#X connect 64 0 44 11;
#X connect 65 0 64 0;
#X connect 65 1 64 1;
#X connect 66 0 77 0;
#X connect 67 0 11 1;
#X connect 68 0 10 0;
#X connect 69 0 71 0;
#X connect 70 0 69 0;
#X connect 70 1 69 1;
#X connect 71 0 72 0;
#X connect 72 0 10 0;
#X connect 72 1 10 1;
#X connect 73 0 44 8;
#X connect 74 0 75 0;
#X connect 75 0 44 3;
#X connect 76 0 78 0;
#X connect 77 0 30 0;
#X connect 78 0 79 0;
#X connect 78 1 79 1;
#X connect 79 0 80 0;
#X connect 80 0 81 0;
#X connect 80 1 81 1;
#X connect 81 0 83 0;
#X connect 83 0 77 1;
#X connect 88 0 60 0;
#X connect 89 0 88 0;
#X connect 89 1 88 1;
#X connect 90 0 105 0;
#X connect 95 0 46 0;
#X connect 96 0 54 0;
#X connect 97 0 49 0;
#X connect 98 0 59 0;
#X connect 99 0 63 0;
#X connect 100 0 105 1;
#X connect 101 0 2 0;
#X connect 102 0 13 0;
#X connect 103 0 70 0;
#X connect 105 0 89 0;
#X connect 107 0 108 0;
#X connect 107 0 109 0;
#X connect 109 0 95 0;
#X connect 110 0 107 0;
#X connect 110 1 106 0;
#X connect 112 0 113 0;
#X connect 112 0 114 0;
#X connect 112 0 32 0;
#X connect 115 0 112 0;
#X connect 115 1 111 0;
#X connect 116 0 117 0;
#X connect 116 0 118 0;
#X connect 116 0 119 0;
#X connect 117 0 95 0;
#X connect 117 0 97 0;
#X connect 117 0 99 0;
#X connect 117 0 100 0;
#X connect 117 0 103 0;
#X connect 117 0 102 0;
#X connect 118 0 98 0;
#X connect 119 0 101 0;
#X connect 121 0 122 0;
#X connect 121 0 123 0;
#X connect 123 0 96 0;
#X connect 124 0 121 0;
#X connect 124 1 120 0;
#X connect 126 0 127 0;
#X connect 126 0 128 0;
#X connect 128 0 97 0;
#X connect 129 0 126 0;
#X connect 129 1 125 0;
#X connect 131 0 132 0;
#X connect 131 0 133 0;
#X connect 133 0 98 0;
#X connect 135 0 136 0;
#X connect 135 0 137 0;
#X connect 137 0 99 0;
#X connect 138 0 131 0;
#X connect 138 1 130 0;
#X connect 139 0 135 0;
#X connect 139 1 134 0;
#X connect 141 0 142 0;
#X connect 141 0 143 0;
#X connect 143 0 100 0;
#X connect 145 0 146 0;
#X connect 145 0 147 0;
#X connect 147 0 101 0;
#X connect 149 0 150 0;
#X connect 149 0 151 0;
#X connect 151 0 102 0;
#X connect 153 0 154 0;
#X connect 153 0 155 0;
#X connect 155 0 103 0;
#X connect 157 0 158 0;
#X connect 157 0 159 0;
#X connect 159 0 56 0;
#X connect 160 0 141 0;
#X connect 160 1 140 0;
#X connect 161 0 145 0;
#X connect 161 1 144 0;
#X connect 162 0 149 0;
#X connect 162 1 148 0;
#X connect 163 0 153 0;
#X connect 163 1 152 0;
#X connect 164 0 157 0;
#X connect 164 1 156 0;
#X coords 0 -1 1 1 180 150 2 100 100;
#X restore -31 244 pd graindelay;
#X obj -30 514 *~ 1;
#X obj -31 546 dac~;
#N canvas 0 0 450 300 (subpatch) 0;
#X array tabla 3.11773e+006 float 0;
#X coords 0 1 3.11773e+006 -1 160 100 1;
#X restore 79 463 graph;
#X obj 170 341 soundfiler;
#X floatatom 170 363 0 0 0 0 - - -;
#X obj 170 289 openpanel;
#X obj 171 263 bng 15 250 50 0 empty empty empty 17 7 0 10 -262144
-1 -1;
#X msg 170 316 read -resize \$1 tabla;
#X obj -30 212 tabplay~ tabla;
#X msg 35 186 stop;
#X msg -30 188 bang;
#X floatatom 38 429 3 0 0 0 - - -;
#X floatatom -6 428 3 0 0 0 - - -;
#X obj -6 450 bng 20 250 50 0 empty empty empty 17 7 0 10 -262144 -1
-1;
#X obj -6 403 ctlin 60;
#X obj -9 479 / 100;
#X msg 245 282 read -resize yanquilandia_audio.wav tabla;
#X obj 245 251 loadbang;
#X obj -29 163 delay 200;
#X connect 0 0 1 0;
#X connect 1 0 2 0;
#X connect 1 0 2 1;
#X connect 4 0 5 0;
#X connect 6 0 8 0;
#X connect 7 0 6 0;
#X connect 8 0 4 0;
#X connect 9 0 0 0;
#X connect 9 1 11 0;
#X connect 10 0 9 0;
#X connect 11 0 9 0;
#X connect 13 0 14 0;
#X connect 13 0 16 0;
#X connect 15 0 13 0;
#X connect 15 1 12 0;
#X connect 16 0 1 1;
#X connect 17 0 4 0;
#X connect 18 0 17 0;
#X connect 18 0 19 0;
#X connect 19 0 11 0;
